<?xml version="1.0" encoding="UTF-8"?>
<!-- Created with Inkscape (http://www.inkscape.org/) -->
<svg version="1.1" viewBox="0 0 5.5563 5.5563" xmlns="http://www.w3.org/2000/svg" xmlns:cc="http://creativecommons.org/ns#" xmlns:dc="http://purl.org/dc/elements/1.1/" xmlns:rdf="http://www.w3.org/1999/02/22-rdf-syntax-ns#">
 <metadata>
  <rdf:RDF>
   <cc:Work rdf:about="">
    <dc:format>image/svg+xml</dc:format>
    <dc:type rdf:resource="http://purl.org/dc/dcmitype/StillImage"/>
    <dc:title/>
   </cc:Work>
  </rdf:RDF>
 </metadata>
 <g transform="translate(-94.192 -108.09)">
  <g stroke-width=".26458">
   <rect x="95.25" y="111.79" width=".26458" height=".79375"/>
   <rect x="95.515" y="111.79" width=".52917" height=".26458"/>
   <rect x="95.779" y="112.06" width=".26458" height=".52917"/>
   <rect x="95.515" y="112.32" width=".26458" height=".26458"/>
   <rect x="96.573" y="110.47" width=".26458" height=".79375"/>
   <rect x="96.838" y="110.47" width=".52917" height=".26458"/>
   <rect x="97.102" y="110.73" width=".26458" height=".52917"/>
   <rect x="96.838" y="111" width=".26458" height=".26458"/>
   <rect x="96.573" y="111.79" width=".26458" height=".79375"/>
   <rect x="96.838" y="111.79" width=".52917" height=".26458"/>
   <rect x="97.102" y="112.06" width=".26458" height=".52917"/>
   <rect x="96.838" y="112.32" width=".26458" height=".26458"/>
   <rect x="97.896" y="110.47" width=".26458" height=".79375"/>
   <rect x="98.16" y="110.47" width=".52917" height=".26458"/>
   <rect x="98.425" y="110.73" width=".26458" height=".52917"/>
   <rect x="98.16" y="111" width=".26458" height=".26458"/>
   <rect x="97.896" y="111.79" width=".26458" height=".79375"/>
   <rect x="98.16" y="111.79" width=".52917" height=".26458"/>
   <rect x="98.425" y="112.06" width=".26458" height=".52917"/>
   <rect x="98.16" y="112.32" width=".26458" height=".26458"/>
   <rect x="94.192" y="108.62" width=".52917" height="5.0271" ry=".26458"/>
   <rect x="94.192" y="113.11" width="5.5563" height=".5292" ry=".26458"/>
   <rect x="94.985" y="109.94" width="3.9687" height=".26458"/>
   <rect x="99.219" y="108.62" width=".52917" height="5.0271" ry=".26458"/>
   <rect x="95.515" y="108.09" width=".26458" height="1.5875" ry=".13229"/>
  </g>
  <rect x="98.69" y="108.62" width=".79375" height=".52917" stroke-width=".32405"/>
  <rect x="94.456" y="108.62" width=".79375" height=".52917" stroke-width=".32405"/>
  <g stroke-width=".26458">
   <rect x="96.838" y="108.09" width=".26459" height="1.5875" ry=".13229"/>
   <rect x="98.16" y="108.09" width=".26459" height="1.5875" ry=".13229"/>
   <rect x="96.044" y="108.62" width=".52917" height=".52917"/>
   <rect x="97.367" y="108.62" width=".52917" height=".52917"/>
  </g>
 </g>
</svg>
